<svg xmlns="http://www.w3.org/2000/svg" viewBox="0 0 300 120">
  <defs>
    <linearGradient id="githubGrad" x1="0%" y1="0%" x2="100%" y2="100%">
      <stop offset="0%" style="stop-color:#24292e;stop-opacity:1" />
      <stop offset="100%" style="stop-color:#1b1f23;stop-opacity:1" />
    </linearGradient>
  </defs>
  <rect width="300" height="120" rx="15" fill="url(#githubGrad)"/>
  <g transform="translate(115, 15)">
    <path fill="#ffffff" d="M35 0C15.7 0 0 15.7 0 35c0 15.5 10 28.6 23.9 33.2 1.7.3 2.4-.8 2.4-1.7v-6c-9.7 2.1-11.8-4.7-11.8-4.7-1.6-4.1-3.9-5.2-3.9-5.2-3.2-2.2.2-2.1.2-2.1 3.5.2 5.4 3.6 5.4 3.6 3.1 5.4 8.2 3.8 10.2 2.9.3-2.3 1.2-3.8 2.2-4.7-7.8-.9-16-3.9-16-17.3 0-3.8 1.4-7 3.6-9.4-.4-.9-1.6-4.4.3-9.2 0 0 2.9-.9 9.6 3.6 2.8-.8 5.8-1.2 8.7-1.2 3 0 5.9.4 8.7 1.2 6.7-4.5 9.6-3.6 9.6-3.6 1.9 4.8.7 8.3.3 9.2 2.2 2.4 3.6 5.6 3.6 9.4 0 13.5-8.2 16.4-16 17.3 1.3 1.1 2.4 3.2 2.4 6.5v9.6c0 .9.6 2 2.4 1.7C60 63.6 70 50.5 70 35 70 15.7 54.3 0 35 0z"/>
  </g>
  <text x="150" y="105" font-family="Arial, sans-serif" font-size="14" fill="#ffffff" text-anchor="middle" font-weight="bold">GitHub Profile</text>
</svg>
