<svg xmlns="http://www.w3.org/2000/svg" viewBox="0 0 600 300">
  <defs>
    <linearGradient id="lightCardBg" x1="0%" y1="0%" x2="100%" y2="100%">
      <stop offset="0%" style="stop-color:#ffffff;stop-opacity:1" />
      <stop offset="100%" style="stop-color:#f6f8fa;stop-opacity:1" />
    </linearGradient>
  </defs>
  
  <rect width="600" height="300" rx="20" fill="url(#lightCardBg)"/>
  <rect x="2" y="2" width="596" height="296" rx="18" fill="none" stroke="#7B42BC" stroke-width="2" opacity="0.5"/>
  
  <!-- Terraform Logo -->
  <g transform="translate(80, 80)">
    <polygon points="41,10 41,50 76,70 76,30" fill="#7B42BC"/>
    <polygon points="41,55 41,95 76,115 76,75" fill="#7B42BC"/>
    <polygon points="0,30 0,70 35,90 35,50" fill="#7B42BC" opacity="0.7"/>
    <polygon points="41,10 6,30 6,70 41,50" fill="#7B42BC" opacity="0.5"/>
  </g>
  
  <!-- Text Content -->
  <text x="200" y="80" font-family="Arial, sans-serif" font-size="28" fill="#24292f" font-weight="bold">Terraform Modules</text>
  <text x="200" y="110" font-family="Arial, sans-serif" font-size="16" fill="#57606a">Infrastructure as Code made simple</text>
  
  <text x="200" y="150" font-family="Arial, sans-serif" font-size="14" fill="#24292f">
    <tspan x="200" dy="0">📦 Production-ready modules for AWS, Azure, GCP</tspan>
    <tspan x="200" dy="25">🔄 Reusable and composable architecture</tspan>
    <tspan x="200" dy="25">📚 Well-documented with examples</tspan>
    <tspan x="200" dy="25">✅ Tested and validated configurations</tspan>
  </text>
  
  <!-- Tags -->
  <g transform="translate(30, 260)">
    <rect x="0" y="0" width="80" height="25" rx="12" fill="#7B42BC" opacity="0.2"/>
    <text x="40" y="17" font-family="Arial, sans-serif" font-size="12" fill="#7B42BC" text-anchor="middle">Terraform</text>
    
    <rect x="90" y="0" width="50" height="25" rx="12" fill="#3B82F6" opacity="0.2"/>
    <text x="115" y="17" font-family="Arial, sans-serif" font-size="12" fill="#3B82F6" text-anchor="middle">AWS</text>
    
    <rect x="150" y="0" width="55" height="25" rx="12" fill="#0078D4" opacity="0.2"/>
    <text x="177" y="17" font-family="Arial, sans-serif" font-size="12" fill="#0078D4" text-anchor="middle">Azure</text>
    
    <rect x="215" y="0" width="45" height="25" rx="12" fill="#4285F4" opacity="0.2"/>
    <text x="237" y="17" font-family="Arial, sans-serif" font-size="12" fill="#4285F4" text-anchor="middle">GCP</text>
  </g>
  
  <!-- Arrow indicator -->
  <text x="550" y="160" font-family="Arial, sans-serif" font-size="24" fill="#7B42BC">→</text>
</svg>
