<svg xmlns="http://www.w3.org/2000/svg" viewBox="0 0 300 120">
  <defs>
    <linearGradient id="upworkGrad" x1="0%" y1="0%" x2="100%" y2="100%">
      <stop offset="0%" style="stop-color:#14a800;stop-opacity:1" />
      <stop offset="100%" style="stop-color:#0d7a00;stop-opacity:1" />
    </linearGradient>
  </defs>
  <rect width="300" height="120" rx="15" fill="url(#upworkGrad)"/>
  <g transform="translate(100, 20)">
    <path fill="#ffffff" d="M80.4 29.7c-5.4 0-10.1 3.4-12 8.5l-.8-1.5c-2-3.8-5.8-6.2-10.3-6.2-6.5 0-11.7 5.3-11.7 11.8v21.5h7.7V42.3c0-2.3 1.8-4.1 4-4.1s4 1.8 4 4.1v21.5h7.7V42.3c0-2.4 1.8-4.2 4-4.2 2.3 0 4 1.8 4 4.2v21.5h7.8V42c0-6.8-5.3-12.3-11.8-12.3h-7.6zM10 30.5c-5.5 0-10 4.5-10 10v23.3h7.7V40.5c0-1.3 1-2.3 2.3-2.3s2.3 1 2.3 2.3v23.3H20v-23.3c0-5.5-4.5-10-10-10z"/>
  </g>
  <text x="150" y="105" font-family="Arial, sans-serif" font-size="13" fill="#ffffff" text-anchor="middle" font-weight="bold">Upwork Rising Talent</text>
</svg>
